<svg width="310" height="350" viewBox="0 0 310 350" xmlns="http://www.w3.org/2000/svg">
  <!-- 
    This SVG creates a logo pattern forming a mathematically equilateral triangle, with a head and body shape at the bottom.
    - The gradient now uses 'userSpaceOnUse' to create a single, continuous flow of color across the entire logo.
    - The body shape is now a rounded rectangle.
  -->
  <defs>
    <!-- 
      Defines a linear gradient that transitions horizontally across the entire SVG's coordinate space.
    -->
    <linearGradient id="logoGradient" x1="31" y1="0" x2="264" y2="0" gradientUnits="userSpaceOnUse">
      <stop offset="0%" style="stop-color:#2170ad;stop-opacity:1" />
      <stop offset="100%" style="stop-color:#55b7ce;stop-opacity:1" />
    </linearGradient>
  </defs>

  <!-- Row 1: Grouped for a continuous gradient -->
  <g fill="url(#logoGradient)">
    <rect x="31" y="20" width="198" height="30" rx="15" ry="15" />
    <circle cx="264" cy="35" r="15" />
  </g>

  <!-- Row 2: Grouped for a continuous gradient -->
  <g fill="url(#logoGradient)">
    <circle cx="75" cy="85" r="15" />
    <rect x="110" y="70" width="140" height="30" rx="15" ry="15" />
  </g>

  <!-- Row 3: Grouped for a continuous gradient -->
  <g fill="url(#logoGradient)">
    <rect x="89" y="120" width="83" height="30" rx="15" ry="15" />
    <circle cx="207" cy="135" r="15" />
  </g>

  <!-- Row 4: Single shape, no group needed -->
  <rect x="118" y="170" width="75" height="30" rx="15" ry="15" fill="url(#logoGradient)" />

  <!-- Row 5: Head and Body group with a solid fill color -->
  <g fill="#43c2a2">
    <!-- The Head -->
    <circle cx="155" cy="235" r="15" />
    <!-- The Body: Now a standard rounded rectangle -->
    <rect x="140" y="260" width="30" height="75" rx="15" ry="15" />
  </g>

  <!-- Verification Lines for Equilateral Triangle -->
  <!-- The length of the first line is 266 -->
  <!-- The length of the second line is 265.68 -->
  <!-- The length of the third line is 265.68 -->
  <!-- <line x1="22" y1="20" x2="288" y2="20" stroke="red" stroke-width="2" />
  <line x1="22" y1="20" x2="155" y2="250" stroke="red" stroke-width="2" />
  <line x1="288" y1="20" x2="155" y2="250" stroke="red" stroke-width="2" /> -->
</svg>
